<?xml version="1.0" standalone="no"?><!DOCTYPE svg PUBLIC "-//W3C//DTD SVG 1.1//EN" "http://www.w3.org/Graphics/SVG/1.1/DTD/svg11.dtd"><svg t="1632640668634" class="icon" viewBox="0 0 1024 1024" version="1.1" xmlns="http://www.w3.org/2000/svg" p-id="17954" width="32" height="32" xmlns:xlink="http://www.w3.org/1999/xlink"><defs><style type="text/css"></style></defs><path d="M924.47 337.94A446.9 446.9 0 1 0 959.76 512a447.53 447.53 0 0 0-35.29-174.06zM512 911.76c-220.43 0-399.76-179.33-399.76-399.76S291.57 112.24 512 112.24 911.76 291.57 911.76 512 732.43 911.76 512 911.76z" fill="#677787" p-id="17955"></path><path d="M667 499h-35.08c-16.37-4.8-30.39-15.68-38-29.72-9.73-17.9-10.2-24.57 8-47.93l7-7.85c18.29-20.66 27-46.33 24.56-72.29-2.55-26.95-16.8-51.72-40.13-69.74-21.58-16.65-49.52-26.25-78.68-27s-57.62 7.31-80.35 22.73c-24.9 16.92-41 41.15-45.32 68.23-4.07 25.43 2.76 51.2 19.23 72.54a23.45 23.45 0 0 0 1.85 2.14l15.34 15.66a24.41 24.41 0 0 0 4.84 3.81c3.73 2.75 10.71 19.77-0.1 39.72-7.64 14-21.67 24.93-38 29.72H357a44.7 44.7 0 0 0-44.65 44.65v96.5a44.7 44.7 0 0 0 44.65 44.6h310a44.7 44.7 0 0 0 44.65-44.66v-96.5A44.7 44.7 0 0 0 667 499zM457.88 390.28l-12.47-12.72c-7.85-10.65-11-22.6-9.06-34.62 2.22-13.87 11.06-26.69 24.9-36.09 29.65-20.13 74.78-19 102.72 2.57 12.7 9.81 20.4 22.69 21.68 36.26 1.21 12.77-3.19 25.21-12.69 35.94l-7.45 8.38c-0.32 0.37-0.64 0.75-0.94 1.14-24.69 31.52-35.45 59.42-12.84 101 1.26 2.32 2.62 4.6 4.06 6.82h-87.56c1.44-2.23 2.81-4.5 4.07-6.82 22.04-40.65 10.45-84.31-14.42-101.86z m205.8 246.49H360.32V547h28.29a24 24 0 0 0 9.4 0H626a24.22 24.22 0 0 0 4.69 0.47 23.76 23.76 0 0 0 4.63-0.47h28.38zM687.68 731.64H336.32a24 24 0 0 0 0 48h351.36a24 24 0 0 0 0-48z" fill="#677787" p-id="17956"></path></svg>